<mxfile host="Electron" modified="2025-04-29T23:58:08.560Z" agent="Mozilla/5.0 (Windows NT 10.0; Win64; x64) AppleWebKit/537.36 (KHTML, like Gecko) draw.io/24.2.5 Chrome/120.0.6099.109 Electron/28.1.0 Safari/537.36" etag="Q6UyOKm_BN1YZeU6RthO" version="24.2.5" type="device">
  <diagram name="Page-1" id="euOXjFIDtaLQ0mT6cxw2">
    <mxGraphModel dx="2427" dy="210" grid="1" gridSize="10" guides="1" tooltips="1" connect="1" arrows="1" fold="1" page="1" pageScale="1" pageWidth="850" pageHeight="1100" math="0" shadow="0">
      <root>
        <mxCell id="0" />
        <mxCell id="1" parent="0" />
        <mxCell id="tOJ0rPZZvRuvvd-nFfJs-1" value="&lt;b&gt;Flow:&lt;/b&gt;&lt;br&gt;Shared variables or properties" style="ellipse;whiteSpace=wrap;html=1;aspect=fixed;" vertex="1" parent="1">
          <mxGeometry x="-1445.5" y="741" width="80" height="80" as="geometry" />
        </mxCell>
        <mxCell id="tOJ0rPZZvRuvvd-nFfJs-2" value="specializes" style="edgeStyle=orthogonalEdgeStyle;rounded=0;orthogonalLoop=1;jettySize=auto;html=1;exitX=0;exitY=0.5;exitDx=0;exitDy=0;exitPerimeter=0;endArrow=block;endFill=0;" edge="1" parent="1" source="tOJ0rPZZvRuvvd-nFfJs-3" target="tOJ0rPZZvRuvvd-nFfJs-4">
          <mxGeometry x="-0.1835" relative="1" as="geometry">
            <mxPoint as="offset" />
            <mxPoint x="-1383.474358974359" y="930.5" as="targetPoint" />
          </mxGeometry>
        </mxCell>
        <mxCell id="tOJ0rPZZvRuvvd-nFfJs-3" value="&lt;b&gt;CommsFlow:&lt;br&gt;&lt;/b&gt;Flow network enabling communications" style="whiteSpace=wrap;html=1;shape=mxgraph.basic.octagon2;align=center;verticalAlign=middle;dx=10.64;" vertex="1" parent="1">
          <mxGeometry x="-1125.5" y="740" width="80" height="80" as="geometry" />
        </mxCell>
        <mxCell id="tOJ0rPZZvRuvvd-nFfJs-4" value="&lt;b style=&quot;border-color: var(--border-color);&quot;&gt;MultiFlow:&lt;/b&gt;&lt;br&gt;Flow with&lt;br style=&quot;border-color: var(--border-color);&quot;&gt;multiplicity" style="whiteSpace=wrap;html=1;shape=mxgraph.basic.pentagon" vertex="1" parent="1">
          <mxGeometry x="-1288.5" y="740" width="90" height="81" as="geometry" />
        </mxCell>
        <mxCell id="tOJ0rPZZvRuvvd-nFfJs-5" value="specializes" style="edgeStyle=orthogonalEdgeStyle;rounded=0;orthogonalLoop=1;jettySize=auto;html=1;entryX=1;entryY=0.5;entryDx=0;entryDy=0;endArrow=block;endFill=0;" edge="1" parent="1" source="tOJ0rPZZvRuvvd-nFfJs-4" target="tOJ0rPZZvRuvvd-nFfJs-1">
          <mxGeometry x="-0.0863" relative="1" as="geometry">
            <Array as="points">
              <mxPoint x="-1285.5" y="781" />
              <mxPoint x="-1285.5" y="781" />
            </Array>
            <mxPoint as="offset" />
            <mxPoint x="-1288.5" y="785" as="sourcePoint" />
            <mxPoint x="-1380.5" y="777" as="targetPoint" />
          </mxGeometry>
        </mxCell>
      </root>
    </mxGraphModel>
  </diagram>
</mxfile>
